<?xml version="1.0" encoding="utf-8"?>
<!-- Generator: Adobe Illustrator 26.0.3, SVG Export Plug-In . SVG Version: 6.00 Build 0)  -->
<svg version="1.1" id="Layer_1" xmlns="http://www.w3.org/2000/svg" xmlns:xlink="http://www.w3.org/1999/xlink" x="0px" y="0px"
	 viewBox="0 0 512 512" style="enable-background:new 0 0 512 512;" xml:space="preserve">
<style type="text/css">
	.st0{fill:none;stroke:#020A47;stroke-width:35;stroke-linejoin:round;stroke-miterlimit:10;}
	.st1{fill:none;stroke:#020A47;stroke-width:35;stroke-linecap:round;stroke-linejoin:round;stroke-miterlimit:10;}
	.st2{fill:#020A47;}
	.st3{fill:#D6F622;}
	.st4{fill-rule:evenodd;clip-rule:evenodd;fill:#D30971;}
</style>
<g>
	<polyline class="st0" points="844.4,302.8 790,232.2 790,92.3 	"/>
	<circle class="st1" cx="790" cy="232.2" r="193.9"/>
	<circle class="st2" cx="652" cy="232.2" r="21.6"/>
	<circle class="st2" cx="790" cy="370.9" r="21.6"/>
	<circle class="st2" cx="925.4" cy="232.2" r="21.6"/>
	<g>
		<path class="st3" d="M953.7,98.6c29.8,36.5,47.8,83,47.8,133.7c0,116.6-94.8,211.4-211.4,211.4c-50.7,0-97.2-17.9-133.7-47.8
			c38.8,47.4,97.8,77.8,163.7,77.8c116.6,0,211.4-94.8,211.4-211.4C1031.5,196.3,1001.2,137.4,953.7,98.6z"/>
	</g>
</g>
<g>
	<path class="st4" d="M353.3,333.2l94.7-21.6c1.6-0.3,2.9-0.8,4.2-1.8c1.3-0.8,2.3-1.8,3.1-3.1c0.8-1.3,1.3-2.6,1.6-4.2
		c0.3-1.6,0-2.9-0.3-4.4l-40.2-173.9c-0.8-2.9-2.6-5.2-5.2-6.8c-2.6-1.6-5.5-2.1-8.6-1.3L308,137.7c-2.9,0.8-5.2,2.6-6.8,5.2
		s-2.1,5.5-1.3,8.3L340,325.1c0.8,2.9,2.6,5.2,5.2,6.8C347.3,333.5,350.5,334,353.3,333.2z"/>
	<path class="st4" d="M320.7,440.9L435.5,335c4.4-4.4,3.1-7-2.6-5l-79,17.7c-3.4,0.8-6.3,2.3-8.9,4.7c-2.3,2.3-4.4,5.2-5.5,8.3
		l-24,76.7C314.2,443.5,316.3,445.1,320.7,440.9z"/>
	<path class="st4" d="M111.4,406.2l171.8,52.9c2.9,0.5,6,0,8.6-1.6c2.6-1.6,4.7-3.9,5.5-6.5l28.7-91.8c0.5-1.3,0.5-2.9,0.3-4.4
		s-0.5-2.9-1.3-4.2c-0.8-1.3-1.8-2.3-2.9-3.4c-1-1-2.6-1.6-3.9-2.1l-171.6-52.4c-2.9-0.8-6-0.5-8.6,1s-4.7,3.9-5.5,6.8l-28.7,91.8
		c-0.8,2.9-0.5,6,0.8,8.6C105.9,403.4,108.5,405.4,111.4,406.2z"/>
	<path class="st4" d="M55.8,218.2l34.9,152c1,6,3.9,6,5.5,0l24-76.7c0.8-3.4,0.8-6.8,0-9.9c-0.8-3.4-2.3-6.3-4.4-8.9l-55-59.2
		C56.9,211.2,54,212.2,55.8,218.2z"/>
	<path class="st4" d="M190.1,55.8L58.4,177.3c-2.1,1.8-3.4,4.7-3.4,7.6c0,2.9,1,5.7,2.9,7.8l65.7,70.9c2.1,2.1,5,3.4,7.8,3.4
		c2.9,0,5.7-1,8.1-2.9l131.7-121.5c2.1-2.1,3.4-4.7,3.4-7.6c0-2.9-1-5.7-2.9-7.8L206,56c-1-1-2.3-1.8-3.7-2.6
		c-1.3-0.5-2.6-0.8-4.2-0.8s-2.9,0.3-4.4,0.8C192.5,54,191.2,54.7,190.1,55.8z"/>
	<path class="st4" d="M317.4,330.6c6,1.6,9.9-1.6,8.1-7.8l-38.1-164.3c-1.6-6-6.5-7.6-11-3.4L152.3,269.9c-4.4,4.4-3.4,9.1,2.6,10.7
		L317.4,330.6z"/>
	<path class="st4" d="M382.3,101.4L232.1,55.8c-6-1.6-7,0.5-2.1,5.5l55,58.9c2.3,2.3,5.5,3.9,8.6,5c3.1,0.8,6.8,1,9.9,0.3l79-17.7
		C388.3,105.8,388.3,103.2,382.3,101.4z"/>
</g>
</svg>
